name processed_emg_signals
nRows=61
nColumns=6
 
endheader
time	LGLTMED	LRF	LADDLONG	LTA	LGM
0.15378799999999992	0.2952820690727764	0.6947965492599537	0.5749542460004816	0.4018577178031018	0.4061598035690979
0.15478799999999993	0.2950664571840423	0.6908299268484159	0.573532118260877	0.4002496379502502	0.4055704074367145
0.15578799999999993	0.2948676442424913	0.686948391949332	0.5722216712512839	0.3986972997209005	0.4050389396146067
0.15678799999999993	0.2946869184917257	0.6831537452651992	0.5710229746481982	0.397200879266427	0.4045678308503286
0.15778799999999993	0.2945255165570902	0.6794477040396242	0.5699359631773402	0.3957604694733757	0.4041594270718905
0.15878799999999993	0.2943846205881236	0.6758318999428006	0.5689604389504651	0.3943760823699399	0.4038159831215751
0.15978799999999993	0.2942653555166251	0.6723078769259265	0.5680960738983454	0.3930476516283062	0.4035396566268164
0.16078799999999993	0.2941687864390444	0.6688770890505674	0.5673424123022759	0.3917750351527296	0.4033325020335267
0.16178799999999993	0.2940959161321461	0.6655408982994943	0.5666988734258752	0.3905580177428068	0.4031964648262359
0.16278799999999993	0.2940476827109433	0.6623005723767984	0.5661647542481437	0.3893963138205358	0.4031333759583463
0.16378799999999993	0.2940249574376299	0.6591572825063765	0.5657392322976107	0.3882895702089619	0.4031449465144185
0.16478799999999993	0.2940285426895969	0.6561121012400514	0.5654213685862817	0.3872373689495207	0.4032327626251882
0.16578799999999994	0.2940591700937898	0.6531660002885505	0.5652101106405272	0.3862392301453753	0.4033982806547244
0.16678799999999994	0.2941174988336754	0.6503198483909604	0.5651042956248528	0.3852946148185894	0.4036428226779898
0.16778799999999994	0.2942041141344346	0.6475744092399587	0.5651026535536421	0.3844029277699513	0.4039675722660724
0.16878799999999994	0.2943195259312471	0.6449303394819793	0.5652038105855618	0.3835635204302351	0.4043735705951801
0.16978799999999994	0.2944641677253997	0.6423881868126197	0.5654062923956179	0.3827756936918299	0.4048617128942812
0.17078799999999994	0.2946383956327085	0.639948388187831	0.5657085276201042	0.3820387007096779	0.4054327452450701
0.17178799999999994	0.2948424876284841	0.6376112681708822	0.5661088513695554	0.3813517496610952	0.4060872617464596
0.17278799999999994	0.2950766429932877	0.6353770374339378	0.5666055088040901	0.3807140064553302	0.4068257020548158
0.17378799999999994	0.2953409819628459	0.6332457914319194	0.5671966587644237	0.3801245973851194	0.4076483493100608
0.17478799999999994	0.2956355455851739	0.6312175092654061	0.5678803774508517	0.379582611714481	0.4085553284566287
0.17578799999999994	0.2959602957872915	0.6292920527487968	0.5686546621413264	0.3790871041994468	0.4095466049673718
0.17678799999999995	0.2963151156533805	0.6274691656992033	0.5695174349393933	0.3786370975399833	0.4106219839769566
0.17778799999999995	0.2966998099158489	0.6257484734603784	0.5704665465415966	0.3782315847624996	0.4117811098301534
0.17878799999999995	0.2971141056603911	0.6241294826748156	0.5714997800136312	0.377869531532087	0.4130234660489383
0.17978799999999995	0.2975576532452791	0.6226115813150817	0.5726148545638042	0.3775498783933602	0.4143483757209097
0.18078799999999995	0.2980300274347669	0.6211940389836891	0.5738094293031631	0.3772715429380666	0.4157550023102856
0.18178799999999995	0.2985307287456896	0.6198760074888675	0.5750811069824617	0.3770334218977194	0.4172423508909384
0.18278799999999995	0.2990591850059675	0.6186565217017922	0.5764274376985189	0.3768343931605999	0.4188092697996427
0.18378799999999995	0.2996147531230247	0.6175345006994877	0.5778459225653142	0.3766733177137873	0.4204544527062633
0.18478799999999995	0.3001967210598351	0.6165087491961091	0.5793340173489469	0.3765490415131491	0.4221764410962531
0.18578799999999995	0.3008043100153942	0.6155779592643733	0.5808891360693769	0.3764603972857692	0.4239736271597908
0.18678799999999995	0.3014366768060275	0.6147407123476999	0.5825086545752486	0.3764062062711886	0.4258442570806089
0.18778799999999995	0.3020929164430022	0.6139954815627692	0.5841899141003243	0.3763852799090189	0.4277864347166952
0.18878799999999996	0.302772064901408	0.6133406342913024	0.585930224810654	0.3763964214811907	0.4297981256635145
0.18978799999999996	0.3034731020741829	0.6127744350591025	0.5877268693511111	0.3764384277169301	0.4318771616896372
0.19078799999999996	0.3041949549046818	0.6122950486993332	0.589577106398356	0.3765100903678955	0.4340212455332155
0.19178799999999996	0.3049365006900713	0.6119005437958018	0.5914781742256485	0.3766101977598994	0.4362279560467427
0.19278799999999996	0.3056965705470835	0.6115888964003651	0.5934272942830744	0.3767375363269358	0.4384947536765777
0.19378799999999996	0.3064739530306364	0.6113579940171916	0.595421674795661	0.3768908921325475	0.4408189862630448
0.19478799999999996	0.3072673978949394	0.6112056398447541	0.5974585143807616	0.377069052383117	0.4431978951464114
0.19578799999999993	0.3080756199857259	0.6111295572651866	0.5995350056854654	0.3772708069370023	0.4456286215632203
0.19678799999999994	0.3088973032515525	0.6111273945689971	0.6016483390436437	0.3774949498123795	0.4481082133165597
0.19778799999999994	0.3097311048612935	0.6111967299016632	0.6037957061511343	0.3777402806957911	0.4506336317026612
0.19878799999999994	0.3105756594140131	0.6113350764171978	0.6059743037562098	0.3780056064521518	0.4532017586749812
0.19978799999999994	0.3114295832267127	0.6115398876223453	0.6081813373612683	0.3782897426360729	0.4558094042254488
0.20078799999999994	0.3122914786842799	0.6118085628937916	0.610414024931209	0.3785915150031874	0.4584533139615241
0.20178799999999994	0.3131599386353171	0.6121384531492079	0.6126696006031098	0.3789097610193301	0.4611301768568704
0.20278799999999994	0.3140335508162312	0.6125268666511982	0.6149453183917925	0.37924333136434	0.4638366331531256
0.20378799999999994	0.3149109022851825	0.61297107492166	0.6172384558855656	0.3795910914260303	0.4665692823905548
0.20478799999999994	0.3157905838462625	0.6134683187429023	0.619546317926369	0.3799519227788629	0.4693246915453095
0.20578799999999994	0.3166711944433676	0.6140158142210425	0.6218662402678569	0.3803247246405736	0.4720994032506595
0.20678799999999994	0.3175513455023473	0.6146107588865762	0.62419559320402	0.3807084152989295	0.4748899440786469
0.20778799999999994	0.3184296651996448	0.6152503378059777	0.6265317851596393	0.381101933500286	0.4776928328578397
0.20878799999999995	0.3193048026353931	0.6159317296775798	0.6288722662325168	0.3815042397917393	0.4805045890021212
0.20978799999999995	0.320175431889419	0.616652112884605	0.6312145316764155	0.3819143178093879	0.4833217408251244
0.21078799999999995	0.3210402559396958	0.6174086714790762	0.6335561253125803	0.3823311755063328	0.4861408338149354
0.21178799999999995	0.3218980104244071	0.6181986010723987	0.6358946428572427	0.3827538463146832	0.4889584388432872
0.21278799999999995	0.3227474672306178	0.6190191146109677	0.6382277351522343	0.3831813902368548	0.4917711602834655
0.21378799999999995	0.3235874378937954	0.6198674480181572	0.6405531112861786	0.3836128948618232	0.4945756440106994
